<svg id="Camada_1" xmlns="http://www.w3.org/2000/svg" xmlns:xlink="http://www.w3.org/1999/xlink" viewBox="0 0 1081 560"><style>.st0{clip-path:url(#SVGID_2_);fill:#1f742f}.st1{fill:#9c332a}.st1,.st2{clip-path:url(#SVGID_2_)}.st2{fill:#1d406b}.st3{fill:#2dbea0}.st3,.st4{clip-path:url(#SVGID_2_)}.st4{fill:#f79a4b}.st5{fill:#9f57b1}.st5,.st6{clip-path:url(#SVGID_2_)}.st6{fill:#1a2719}.st7{fill:#7e8c8d}.st7,.st8{clip-path:url(#SVGID_2_)}.st9{fill:#FFF}</style><defs><path id="SVGID_1_" d="M0 0h1081v560H0z"/></defs><clipPath id="SVGID_2_"><use xlink:href="#SVGID_1_" overflow="visible"/></clipPath><path class="st0" d="M712.9 361s5 43 33.8 58.6c36.6 19.9 79.1 16 79.1 16L712.9 361z"/><path class="st1" d="M751.7 176.7s58.4-46.2 124.6-43.5c26.1 1 73.7 28.3 94.8 43.5 55.5 40.1 56 59.4 56.4 84 .9 59.2-30.9 106.5-30.9 106.5L751.7 176.7z"/><path class="st0" d="M945.6 417.6l51.1-63s-5.7 38.3-14 47.6c-6.8 7.5-37.1 15.4-37.1 15.4"/><path class="st2" d="M825.8 435.5s31.4 21.6 72.5 14.5c30.6-5.3 53-34.3 53-34.3l-125.5 19.8zM746.9 167.2s-27.1 19.3-33.8 28c-32.3 42-39.5 115.7-39.5 115.7l10.7 30.1 28.5 20 41.8-185.5-1.5-6.3-6.2-2z"/><path class="st3" d="M907.7 446.7c-21 7.1-50.6 1.7-81.9-11.2-23.1-.9-60.3-5.2-81.4-17.3-22.4-12.8-31-53.8-31.5-57.3-17.3-16.7-31.2-34-39.2-50.1-6.2 43.8-2.6 86.6 16.8 104.8 51.6 48.6 238.9 55 283.6 0 3.1-3.8 5.9-8.4 8.5-13.5-9.4 5-20 9.5-31.3 13.5-14.7 15.2-29.8 26.5-43.6 31.1"/><path class="st4" d="M983.4 148.5c-20.7-17.9-62.9-21.3-107.1-15.4 66.1 22.9 144.6 79 150.3 124.9 3.1 24.8-9.9 61.8-30 96.6-3 18.2-7.7 34.8-14 47.6 18-9.6 32-21 39.3-34 27.2-48.7 3.7-183.2-38.5-219.7"/><path class="st5" d="M721.7 192.7c7.9-6.9 19.2-12.9 32.5-17.8 29.2-19.9 76.8-35.7 122.1-41.8-24.1-8.4-46.6-12.3-63.3-9.7-55.6 8.6-159.4 117.5-145.3 172 1.3 5 3.3 10.1 5.9 15.4 6.9-48.6 25.7-98.6 48.1-118.1"/><path class="st6" d="M974.2 192.7c-33.3-40.7-153.3-42.3-220-17.8-8 5.5-14.7 11.2-19.5 17.2-24.5 30.2-33.9 111.4-21.8 168.9 31.1 30 73.4 58.3 112.9 74.5 41 .5 87.5-6.6 125.5-19.8 16.4-16.9 32.4-38.5 45.3-61 9.4-57.5 2-132.1-22.4-162"/><path class="st7" d="M119.4 236.2H67.3c-4.5 0-8.1 1.4-11 4.3-2.9 2.9-4.3 6.5-4.3 11v39h59.7v3.9H52.1v66h-4.6V251c0-5.5 1.8-10 5.4-13.6 3.6-3.6 8.1-5.4 13.6-5.4 23.7 0 41.5.3 53.4.7l-.5 3.5zM218.7 356.3l.4 3.3c-12.1.5-30.4.7-54.7.7-5.5 0-10-1.8-13.6-5.4-3.6-3.6-5.4-8.1-5.4-13.6V251c0-5.5 1.8-10 5.4-13.6 3.6-3.6 8.1-5.4 13.6-5.4 24.3 0 42.5.3 54.7.7l-.4 3.3h-53.4c-4.5 0-8.1 1.4-11 4.3-2.9 2.9-4.3 6.5-4.3 11v38.3h61v3.9h-61V341c0 4.5 1.4 8.1 4.3 11 2.8 2.9 6.5 4.3 11 4.3h53.4zM356.1 232.1h7.8c1.9 0 2.8.9 2.8 2.8l5.6 125.5h-4.6L362 236.2h-4.5l-42 111.4c-.4 1.1-1.2 1.7-2.4 1.7h-7.8c-1.2 0-2-.6-2.4-1.7l-42-111.4h-4.5l-5.6 124.2h-4.6l5.6-125.5c0-1.9.9-2.8 2.8-2.8h7.8c1.2 0 2 .6 2.4 1.7l35.5 93.9c.7 2 1.8 4.9 3.3 8.7 1.4 3.8 2.5 6.8 3.3 8.7h4.8l6.7-17.8 35.3-93.5c.3-1.2 1.1-1.7 2.4-1.7M494.4 232.1V313c0 18-3.3 30.7-9.9 38.3-6.6 7.6-17.9 11.3-33.7 11.3-16 0-27.3-3.8-33.9-11.3-6.6-7.6-9.9-20.3-9.9-38.3v-80.9h4.6V313c0 16.6 2.9 28.3 8.8 35.1 5.9 6.8 16 10.2 30.4 10.2 14.3 0 24.3-3.4 30.2-10.2 5.9-6.8 8.8-18.5 8.8-35.1v-80.9h4.6zM613.2 286v74.4H610l-1.1-16.5c-11.6 12.5-24.9 18.8-39.8 18.8-15.1 0-26-5.2-32.5-15.6-6.6-10.4-9.9-27.3-9.9-50.8 0-24.5 3.6-41.7 10.7-51.6 7.1-9.9 19.5-14.8 37.3-14.8 13.9 0 26 1.1 36.4 3.2l-1.1 3.3c-10.4-1.5-22.2-2.2-35.3-2.2-16.1 0-27.3 4.6-33.6 13.8-6.3 9.2-9.5 25.3-9.5 48.3 0 21.9 2.9 37.8 8.7 47.5 5.8 9.7 15.6 14.6 29.2 14.6 4.3 0 8.4-.5 12.1-1.5 3.7-1 7.3-2.6 10.9-4.8 3.5-2.2 6.2-4.1 8.1-5.6 1.9-1.5 4.5-3.8 8-6.9V286h4.6z"/><g class="st8"><path class="st9" d="M782.6 331.7l1 6.2c-6.6 1.8-14.9 2.7-25.1 2.7-12.3 0-21-3.4-25.9-10.1-5-6.7-7.5-18.4-7.5-35.1 0-16.6 2.5-28.3 7.5-35.1 5-6.7 13.6-10.1 25.9-10.1 9.2 0 17 .8 23.3 2.4l-1 6.2c-6.4-.8-13.8-1.1-22.3-1.1-9.3 0-15.7 2.7-19.4 8.2-3.6 5.5-5.4 15.3-5.4 29.5s1.8 24 5.4 29.5c3.6 5.5 10.1 8.2 19.4 8.2 9.7 0 17.7-.5 24.1-1.4zM903.6 251.7l-19.7 84.8c-.4 1.7-1.6 2.5-3.4 2.5h-10c-1.9 0-3.1-.9-3.5-2.7l-15.3-68.5-2.2-9.7h-2.8c-1 4.4-1.8 7.6-2.3 9.7L829 336.4c-.4 1.8-1.6 2.7-3.4 2.7h-10.1c-1.9 0-3-.8-3.4-2.5l-19.6-84.8h8.7l15.9 70.7c.7 2.8 1.3 6.2 2 10.1h3.2c.7-3.6 1.3-7 2-10l15.4-67.9c.4-1.9 1.6-2.9 3.4-2.9h9.5c1.9 0 3 1 3.4 2.9l15.4 67.9c.4 1.8 1.1 5.1 2 10h3.3c.2-.8.4-1.8.6-3.2.2-1.3.4-2.6.6-3.7.2-1.1.4-2.1.7-3l16.1-71h8.9zM960.1 293.5v.5c6.3.6 10.8 2.8 13.5 6.6 2.7 3.8 4 9.4 4 16.6 0 8.8-2 14.8-6.1 18-4.1 3.2-11.2 4.8-21.4 4.8-13.2 0-23.5-.3-30.7-1v-87.3c6.3-.7 15.3-1 27-1 10.8 0 18.3 1.6 22.5 4.7 4.2 3.2 6.3 9.2 6.3 18 0 6.3-1.2 11.1-3.5 14.4-2.7 3.3-6.4 5.2-11.6 5.7zm-32.8-2.9H948c7.2-.1 12.1-1.2 14.8-3.4 2.7-2.2 4-6.5 4-12.8 0-6.6-1.5-11-4.5-13.2-3-2.2-8.5-3.4-16.4-3.4-9.3 0-15.5 0-18.6.1v32.7zm0 6.4v35.7c7.1.2 14.3.3 21.6.3 7.7 0 12.9-1.1 15.8-3.4 2.9-2.3 4.3-6.7 4.3-13.4 0-7.3-1.5-12.3-4.6-14.9-3-2.6-8.6-4-16.6-4.2h-20.5z"/></g></svg>