<svg xmlns="http://www.w3.org/2000/svg" width="31.444" height="31.443" viewBox="0 0 31.444 31.443"><path d="M31.202 16.37a2.754 2.754 0 0 0-3.637-1.392l-1.325.594-3.396-7.59 1.325-.593a2.753 2.753 0 1 0-2.25-5.028l-1.323.593-.593-1.326a2.752 2.752 0 0 0-5.026 2.248l.593 1.325-7.59 3.395-.592-1.325A2.753 2.753 0 0 0 2.362 9.52l.592 1.324-1.324.594a2.754 2.754 0 0 0 2.248 5.026l1.325-.594 3.394 7.592-1.325.592a2.754 2.754 0 0 0 2.248 5.028l1.324-.593.593 1.324a2.752 2.752 0 1 0 5.025-2.247l-.59-1.326 7.59-3.393.592 1.32a2.75 2.75 0 1 0 5.026-2.244l-.592-1.324 1.323-.595a2.75 2.75 0 0 0 1.392-3.636zm-17.58 4.845l-3.394-7.593 7.59-3.394 3.396 7.59-7.59 3.397z"/></svg>